<svg width="18" height="16" viewBox="0 0 18 16" fill="none" xmlns="http://www.w3.org/2000/svg">
<path fill-rule="evenodd" clip-rule="evenodd" d="M13.6667 1H4.33333C2.4933 1.0021 1.0022 2.42542 1 4.18182V11.8182C1.0022 13.5746 2.4933 14.9979 4.33333 15H13.6667C15.5067 14.9979 16.9978 13.5746 17 11.8182V4.18182C16.9978 2.42542 15.5067 1.0021 13.6667 1ZM4.33333 2.27273H13.6667C14.4833 2.27426 15.217 2.74962 15.52 3.47355L10.4147 8.34745C9.63245 9.09112 8.36755 9.09112 7.58533 8.34745L2.48 3.47355C2.78299 2.74962 3.51665 2.27426 4.33333 2.27273ZM4.33333 13.7273H13.6667C14.7712 13.7273 15.6667 12.8725 15.6667 11.8182V5.13636L11.3573 9.24727C10.0545 10.4878 7.94555 10.4878 6.64267 9.24727L2.33333 5.13636V11.8182C2.33333 12.8725 3.22876 13.7273 4.33333 13.7273Z" fill="white"/>
<path d="M4.33333 1V0.75L4.33305 0.75L4.33333 1ZM13.6667 1L13.667 0.75H13.6667V1ZM1 4.18182L0.75 4.1815V4.18182H1ZM1 11.8182H0.75L0.75 11.8185L1 11.8182ZM4.33333 15L4.33305 15.25H4.33333V15ZM13.6667 15V15.25H13.667L13.6667 15ZM17 11.8182L17.25 11.8185V11.8182H17ZM17 4.18182H17.25V4.1815L17 4.18182ZM13.6667 2.27273L13.6671 2.02273H13.6667V2.27273ZM4.33333 2.27273V2.02273L4.33286 2.02273L4.33333 2.27273ZM15.52 3.47355L15.6926 3.65437L15.817 3.53564L15.7506 3.37702L15.52 3.47355ZM10.4147 8.34745L10.5869 8.52864L10.5873 8.52828L10.4147 8.34745ZM7.58533 8.34745L7.4127 8.52828L7.41308 8.52864L7.58533 8.34745ZM2.48 3.47355L2.24938 3.37702L2.183 3.53564L2.30737 3.65437L2.48 3.47355ZM15.6667 5.13636H15.9167V4.55237L15.4941 4.95547L15.6667 5.13636ZM11.3573 9.24727L11.5297 9.42833L11.5299 9.42816L11.3573 9.24727ZM6.64267 9.24727L6.4701 9.42816L6.47028 9.42833L6.64267 9.24727ZM2.33333 5.13636L2.5059 4.95547L2.08333 4.55237V5.13636H2.33333ZM4.33333 1.25H13.6667V0.75H4.33333V1.25ZM1.25 4.18213C1.25202 2.57437 2.62037 1.25196 4.33362 1.25L4.33305 0.75C2.36622 0.752249 0.752391 2.27648 0.75 4.1815L1.25 4.18213ZM1.25 11.8182V4.18182H0.75V11.8182H1.25ZM4.33362 14.75C2.62037 14.748 1.25202 13.4256 1.25 11.8179L0.75 11.8185C0.752391 13.7235 2.36622 15.2478 4.33305 15.25L4.33362 14.75ZM13.6667 14.75H4.33333V15.25H13.6667V14.75ZM16.75 11.8179C16.748 13.4256 15.3796 14.748 13.6664 14.75L13.667 15.25C15.6338 15.2478 17.2476 13.7235 17.25 11.8185L16.75 11.8179ZM16.75 4.18182V11.8182H17.25V4.18182H16.75ZM13.6664 1.25C15.3796 1.25196 16.748 2.57437 16.75 4.18213L17.25 4.1815C17.2476 2.27648 15.6338 0.752249 13.667 0.75L13.6664 1.25ZM13.6667 2.02273H4.33333V2.52273H13.6667V2.02273ZM15.7506 3.37702C15.4068 2.55545 14.5791 2.02444 13.6671 2.02273L13.6662 2.52273C14.3876 2.52408 15.0273 2.94378 15.2894 3.57007L15.7506 3.37702ZM10.5873 8.52828L15.6926 3.65437L15.3474 3.29272L10.242 8.16663L10.5873 8.52828ZM7.41308 8.52864C8.2918 9.36406 9.7082 9.36406 10.5869 8.52864L10.2424 8.16627C9.5567 8.81819 8.4433 8.81819 7.75759 8.16627L7.41308 8.52864ZM2.30737 3.65437L7.4127 8.52828L7.75796 8.16663L2.65263 3.29272L2.30737 3.65437ZM4.33286 2.02273C3.42092 2.02444 2.59324 2.55545 2.24938 3.37702L2.71062 3.57007C2.97274 2.94378 3.61238 2.52408 4.3338 2.52273L4.33286 2.02273ZM13.6667 13.4773H4.33333V13.9773H13.6667V13.4773ZM15.4167 11.8182C15.4167 12.7236 14.6443 13.4773 13.6667 13.4773V13.9773C14.8982 13.9773 15.9167 13.0214 15.9167 11.8182H15.4167ZM15.4167 5.13636V11.8182H15.9167V5.13636H15.4167ZM11.5299 9.42816L15.8392 5.31726L15.4941 4.95547L11.1848 9.06638L11.5299 9.42816ZM6.47028 9.42833C7.86971 10.7608 10.1303 10.7608 11.5297 9.42833L11.1849 9.06622C9.97861 10.2148 8.02139 10.2148 6.81506 9.06622L6.47028 9.42833ZM2.16077 5.31726L6.4701 9.42816L6.81523 9.06638L2.5059 4.95547L2.16077 5.31726ZM2.58333 11.8182V5.13636H2.08333V11.8182H2.58333ZM4.33333 13.4773C3.35575 13.4773 2.58333 12.7236 2.58333 11.8182H2.08333C2.08333 13.0214 3.10178 13.9773 4.33333 13.9773V13.4773Z" fill="white"/>
</svg>
