<?xml version="1.0" encoding="UTF-8"?>
<svg width="72px" height="40px" viewBox="0 0 72 40" version="1.1" xmlns="http://www.w3.org/2000/svg" xmlns:xlink="http://www.w3.org/1999/xlink">
    <title>Combined Shape Copy</title>
    <defs>
        <linearGradient x1="-3.74700271e-14%" y1="35.4669187%" x2="100%" y2="64.5330813%" id="linearGradient-1">
            <stop stop-color="#FE68FE" offset="0%"></stop>
            <stop stop-color="#6130DF" offset="100%"></stop>
        </linearGradient>
    </defs>
    <g id="Desktop" stroke="none" stroke-width="1" fill="none" fill-rule="evenodd">
        <g id="Normal" transform="translate(-684.000000, -25.000000)" fill="#FFFFFF" stroke="url(#linearGradient-1)" stroke-width="0.5">
            <g id="Group-4" transform="translate(685.000000, 26.000000)">
                <path d="M70.733871,34.0725806 L70.733871,38.25 L66.5564516,38.25 L66.5564516,34.0725806 L70.733871,34.0725806 Z M67.0564516,30.3951613 L67.0564516,34.5725806 L62.8790323,34.5725806 L62.8790323,30.3951613 L67.0564516,30.3951613 Z M63.3790323,26.7177419 L63.3790323,30.8951613 L59.2016129,30.8951613 L59.2016129,26.7177419 L63.3790323,26.7177419 Z M56.0241935,26.7177419 L56.0241935,30.8951613 L51.8467742,30.8951613 L51.8467742,26.7177419 L56.0241935,26.7177419 Z M7.14516129,-0.25 L7.14516129,3.19758065 L10.5927419,3.19758065 L10.5927419,6.64516129 L13.5403226,6.64516129 L13.5403226,3.19758065 L16.9879032,3.19758065 L16.9879032,-0.25 L24.3830645,-0.25 L24.3830645,24.3830645 L16.9879032,24.3830645 L16.9879032,10.5927419 L14.0403226,10.5927419 L14.0403226,17.4879032 L10.0927419,17.4879032 L10.0927419,10.5927419 L7.14516129,10.5927419 L7.14516129,30.8951613 L-0.25,30.8951613 L-0.25,-0.25 L7.14516129,-0.25 Z M48.516129,-0.25 L48.516129,14.0403226 L45.0685484,14.0403226 L45.0685484,16.9879032 L48.516129,16.9879032 L48.516129,30.8951613 L41.1209677,30.8951613 L41.1209677,20.9354839 L37.6733871,20.9354839 L37.6733871,17.4879032 L34.7258065,17.4879032 L34.7258065,24.3830645 L27.3306452,24.3830645 L27.3306452,-0.25 L48.516129,-0.25 Z M44.5685484,3.69758065 L34.7258065,3.69758065 L34.7258065,7.02822581 L44.5685484,7.02822581 L44.5685484,3.69758065 Z M59.7016129,23.0403226 L59.7016129,27.2177419 L55.5241935,27.2177419 L55.5241935,23.0403226 L59.7016129,23.0403226 Z M56.0241935,19.3629032 L56.0241935,23.5403226 L51.8467742,23.5403226 L51.8467742,19.3629032 L56.0241935,19.3629032 Z M63.3790323,19.3629032 L63.3790323,23.5403226 L59.2016129,23.5403226 L59.2016129,19.3629032 L63.3790323,19.3629032 Z" id="Combined-Shape-Copy"></path>
            </g>
        </g>
    </g>
</svg>