<?xml version="1.0" encoding="UTF-8"?>
<svg width="71px" height="38px" viewBox="0 0 71 38" version="1.1" xmlns="http://www.w3.org/2000/svg" xmlns:xlink="http://www.w3.org/1999/xlink">
    <title>Combined Shape</title>
    <defs>
        <linearGradient x1="-3.74700271e-14%" y1="35.4669187%" x2="100%" y2="64.5330813%" id="linearGradient-1">
            <stop stop-color="#FE68FE" offset="0%"></stop>
            <stop stop-color="#6130DF" offset="100%"></stop>
        </linearGradient>
    </defs>
    <g id="Desktop" stroke="none" stroke-width="1" fill="none" fill-rule="evenodd">
        <g id="Normal" transform="translate(-685.000000, -26.000000)" fill="url(#linearGradient-1)">
            <g id="Group-4" transform="translate(685.000000, 26.000000)">
                <path d="M70.483871,34.3225806 L70.483871,38 L66.8064516,38 L66.8064516,34.3225806 L70.483871,34.3225806 Z M66.8064516,30.6451613 L66.8064516,34.3225806 L63.1290323,34.3225806 L63.1290323,30.6451613 L66.8064516,30.6451613 Z M63.1290323,26.9677419 L63.1290323,30.6451613 L59.4516129,30.6451613 L59.4516129,26.9677419 L63.1290323,26.9677419 Z M55.7741935,26.9677419 L55.7741935,30.6451613 L52.0967742,30.6451613 L52.0967742,26.9677419 L55.7741935,26.9677419 Z M6.89516129,0 L6.89516129,3.44758065 L10.3427419,3.44758065 L10.3427419,6.89516129 L13.7903226,6.89516129 L13.7903226,3.44758065 L17.2379032,3.44758065 L17.2379032,0 L24.1330645,0 L24.1330645,24.1330645 L17.2379032,24.1330645 L17.2379032,10.3427419 L13.7903226,10.3427419 L13.7903226,17.2379032 L10.3427419,17.2379032 L10.3427419,10.3427419 L6.89516129,10.3427419 L6.89516129,30.6451613 L0,30.6451613 L0,0 L6.89516129,0 Z M48.266129,0 L48.266129,13.7903226 L44.8185484,13.7903226 L44.8185484,17.2379032 L48.266129,17.2379032 L48.266129,30.6451613 L41.3709677,30.6451613 L41.3709677,20.6854839 L37.9233871,20.6854839 L37.9233871,17.2379032 L34.4758065,17.2379032 L34.4758065,24.1330645 L27.5806452,24.1330645 L27.5806452,0 L48.266129,0 Z M59.4516129,23.2903226 L59.4516129,26.9677419 L55.7741935,26.9677419 L55.7741935,23.2903226 L59.4516129,23.2903226 Z M55.7741935,19.6129032 L55.7741935,23.2903226 L52.0967742,23.2903226 L52.0967742,19.6129032 L55.7741935,19.6129032 Z M63.1290323,19.6129032 L63.1290323,23.2903226 L59.4516129,23.2903226 L59.4516129,19.6129032 L63.1290323,19.6129032 Z M44.8185484,3.44758065 L34.4758065,3.44758065 L34.4758065,7.27822581 L44.8185484,7.27822581 L44.8185484,3.44758065 Z" id="Combined-Shape"></path>
            </g>
        </g>
    </g>
</svg>