<svg width="16" height="16" viewBox="0 0 16 16" fill="none" xmlns="http://www.w3.org/2000/svg">
<path fill-rule="evenodd" clip-rule="evenodd" d="M12.0633 10.8931L14.754 13.5838C15.0781 13.9076 15.0781 14.4331 14.754 14.7569C14.5922 14.919 14.3797 15 14.1674 15C13.9551 15 13.7427 14.919 13.5808 14.7569L10.8902 12.0663C9.82267 12.8817 8.52785 13.329 7.16154 13.3291C5.51499 13.3291 3.96688 12.6879 2.80261 11.5234C0.399129 9.12011 0.399129 5.20924 2.80261 2.80555C3.96688 1.64128 5.51499 1 7.16154 1C8.80828 1 10.3562 1.64128 11.5205 2.80555C12.6849 3.96982 13.3262 5.51793 13.3262 7.16447C13.326 8.53079 12.8788 9.8256 12.0633 10.8931ZM3.9758 3.97873C2.21947 5.73547 2.21926 8.59368 3.9758 10.3502C4.82672 11.2011 5.95817 11.6698 7.16154 11.6698C8.3651 11.6698 9.49635 11.2011 10.3473 10.3502C11.1982 9.49929 11.6669 8.36804 11.6669 7.16447C11.6669 5.96111 11.1982 4.82965 10.3473 3.97873C9.49635 3.12801 8.3651 2.65931 7.16154 2.65931C5.95817 2.65931 4.82672 3.12801 3.9758 3.97873Z" fill="white"/>
<path d="M14.754 13.5838L14.6656 13.6721L14.6656 13.6722L14.754 13.5838ZM12.0633 10.8931L11.964 10.8172L11.8976 10.9041L11.975 10.9815L12.0633 10.8931ZM14.754 14.7569L14.6656 14.6685L14.6656 14.6686L14.754 14.7569ZM13.5808 14.7569L13.6693 14.6686L13.6692 14.6685L13.5808 14.7569ZM10.8902 12.0663L10.9786 11.9779L10.9012 11.9006L10.8143 11.967L10.8902 12.0663ZM7.16154 13.3291V13.4541H7.16155L7.16154 13.3291ZM2.80261 11.5234L2.89101 11.435L2.891 11.435L2.80261 11.5234ZM2.80261 2.80555L2.71422 2.71716L2.71422 2.71717L2.80261 2.80555ZM11.5205 2.80555L11.4321 2.89394L11.4321 2.89395L11.5205 2.80555ZM13.3262 7.16447L13.4512 7.16449V7.16447H13.3262ZM3.9758 10.3502L3.88741 10.4386L3.9758 10.3502ZM3.9758 3.97873L3.88742 3.89033L3.8874 3.89035L3.9758 3.97873ZM10.3473 3.97873L10.4357 3.89034L10.4357 3.89033L10.3473 3.97873ZM14.8424 13.4954L12.1517 10.8047L11.975 10.9815L14.6656 13.6721L14.8424 13.4954ZM14.8424 14.8454C15.2153 14.4726 15.2153 13.868 14.8424 13.4953L14.6656 13.6722C14.9409 13.9472 14.9409 14.3935 14.6656 14.6685L14.8424 14.8454ZM14.1674 15.125C14.4115 15.125 14.6562 15.0318 14.8424 14.8453L14.6656 14.6686C14.5281 14.8062 14.3479 14.875 14.1674 14.875V15.125ZM13.4924 14.8453C13.6786 15.0318 13.9234 15.125 14.1674 15.125V14.875C13.9869 14.875 13.8067 14.8062 13.6693 14.6686L13.4924 14.8453ZM10.8018 12.1547L13.4924 14.8453L13.6692 14.6685L10.9786 11.9779L10.8018 12.1547ZM7.16155 13.4541C8.55562 13.454 9.87702 12.9975 10.966 12.1656L10.8143 11.967C9.76831 12.766 8.50009 13.204 7.16152 13.2041L7.16155 13.4541ZM2.71422 11.6118C3.90193 12.7997 5.48183 13.4541 7.16154 13.4541V13.2041C5.54814 13.2041 4.03184 12.576 2.89101 11.435L2.71422 11.6118ZM2.71422 2.71717C0.261931 5.16966 0.26192 9.15969 2.71423 11.6118L2.891 11.435C0.536338 9.08054 0.536328 5.24881 2.891 2.89393L2.71422 2.71717ZM7.16154 0.875C5.48184 0.875 3.90194 1.52945 2.71422 2.71716L2.891 2.89394C4.03183 1.75311 5.54814 1.125 7.16154 1.125V0.875ZM11.6088 2.71716C10.4211 1.52945 8.84144 0.875 7.16154 0.875V1.125C8.77513 1.125 10.2912 1.75311 11.4321 2.89394L11.6088 2.71716ZM13.4512 7.16447C13.4512 5.48477 12.7968 3.90487 11.6088 2.71715L11.4321 2.89395C12.5731 4.03477 13.2012 5.55108 13.2012 7.16447H13.4512ZM12.1627 10.969C12.9946 9.87996 13.451 8.55855 13.4512 7.16449L13.2012 7.16446C13.201 8.50302 12.763 9.77125 11.964 10.8172L12.1627 10.969ZM4.06418 10.2618C2.35648 8.55412 2.35666 5.77504 4.06419 4.06711L3.8874 3.89035C2.08227 5.69589 2.08205 8.63324 3.88741 10.4386L4.06418 10.2618ZM7.16154 11.5448C5.99133 11.5448 4.89167 11.0893 4.06418 10.2618L3.88741 10.4386C4.76177 11.313 5.92502 11.7948 7.16154 11.7948V11.5448ZM10.2589 10.2618C9.4314 11.0893 8.33194 11.5448 7.16154 11.5448V11.7948C8.39826 11.7948 9.56131 11.313 10.4357 10.4386L10.2589 10.2618ZM11.5419 7.16447C11.5419 8.33488 11.0864 9.43434 10.2589 10.2618L10.4357 10.4386C11.31 9.56424 11.7919 8.4012 11.7919 7.16447H11.5419ZM10.2589 4.06712C11.0864 4.8946 11.5419 5.99427 11.5419 7.16447H11.7919C11.7919 5.92795 11.31 4.7647 10.4357 3.89034L10.2589 4.06712ZM7.16154 2.78431C8.33194 2.78431 9.43141 3.23984 10.2589 4.06713L10.4357 3.89033C9.5613 3.01619 8.39826 2.53431 7.16154 2.53431V2.78431ZM4.06417 4.06713C4.89166 3.23984 5.99133 2.78431 7.16154 2.78431V2.53431C5.92502 2.53431 4.76178 3.01618 3.88742 3.89033L4.06417 4.06713Z" fill="white"/>
</svg>
